<svg xmlns="http://www.w3.org/2000/svg" viewBox="0 0 512 444" width="91" height="79">
	<style>
		tspan { white-space:pre }
		.shp0 { fill: #f74866 } 
		.shp1 { fill: #ffc627 } 
		.shp2 { fill: #efa233 } 
		.shp3 { fill: #79bbe8 } 
		.shp4 { fill: #3b485b } 
		.shp5 { fill: #515f75 } 
		.shp6 { fill: #f2f2f2 } 
		.shp7 { fill: #e6e6e6 } 
		.shp8 { fill: #f9c2af } 
		.shp9 { fill: #ea9e8f } 
		.shp10 { fill: #293544 } 
		.shp11 { fill: #f4af9d } 
		.shp12 { fill: #e06e86 } 
	</style>
	<path id="Layer" class="shp0" d="M511.99 144.93C511.99 224.96 447.11 289.85 367.07 289.85C287.03 289.85 222.14 224.96 222.14 144.93C222.14 64.89 287.03 0 367.07 0C447.11 0 511.99 64.89 511.99 144.93L511.99 144.93Z" />
	<path id="Layer" class="shp1" d="M512 144.93L367.07 144.93L367.07 0L367.08 0C447.11 0 512 64.88 512 144.93Z" />
	<path id="Layer" class="shp2" d="M298.51 347.02L351.88 347.02L351.88 444.98L298.51 444.98L298.51 347.02Z" />
	<path id="Layer" class="shp1" d="M405.25 293.72L458.63 293.72L458.63 444.98L405.25 444.98L405.25 293.72Z" />
	<path id="Layer" class="shp0" d="M458.63 255.59L511.99 255.59L511.99 444.98L458.63 444.98L458.63 255.59Z" />
	<path id="Layer" class="shp3" d="M351.88 191.51L405.25 191.51L405.25 444.98L351.88 444.98L351.88 191.51Z" />
	<path id="Layer" class="shp4" d="M262.61 390.88L262.61 448.68L9.2 448.68L9.2 390.88C9.2 366.05 29.33 345.92 54.16 345.92L217.65 345.92C242.48 345.92 262.61 366.05 262.61 390.88L262.61 390.88Z" />
	<path id="Layer" class="shp5" d="M262.61 390.88L262.61 448.68L24.61 448.68L24.61 390.88C24.61 366.05 44.73 345.92 69.57 345.92L217.65 345.92C242.48 345.92 262.61 366.05 262.61 390.88L262.61 390.88Z" />
	<path id="Layer" class="shp4" d="M55.42 345.92L52.7 415.07L81.76 422.33L55.66 448.43L216.14 448.43L190.05 422.33L219.11 415.07L216.39 345.92" />
	<path id="Layer" class="shp6" d="M191.31 345.92L162.04 448.67L109.78 448.67L80.5 345.92" />
	<path id="Layer" class="shp0" d="M100.1 371.15L135.91 415.97L171.36 371.32L135.91 364.69L100.1 371.15Z" />
	<path id="Layer" class="shp7" d="M96.95 403.65L135.91 364.69L174.86 403.65L191.31 345.92L80.5 345.92L96.95 403.65Z" />
	<path id="Layer" class="shp8" d="M169.21 288.2L169.21 345.93L135.91 364.69L125.62 358.9L102.6 345.93L102.6 288.16L125.62 288.17L169.21 288.2Z" />
	<path id="Layer" class="shp0" d="M109.96 448.67L135.91 415.97L162.04 448.67" />
	<path id="Layer" class="shp9" d="M125.62 288.17L102.6 288.16L102.6 345.93L125.62 358.9L125.62 332.19C129.02 332.52 132.46 332.71 135.95 332.71C147.58 332.71 158.77 330.81 169.21 327.31L169.21 288.2L125.62 288.17Z" />
	<path id="Layer" class="shp9" d="M31.4 227.41C14.06 227.41 0 214.83 0 199.3C0 183.78 14.06 171.2 31.4 171.2L240.51 171.2C257.85 171.2 271.91 183.78 271.91 199.3C271.91 214.83 257.85 227.41 240.51 227.41" />
	<path id="Layer" class="shp8" d="M240.51 109.67L240.51 214.23C240.51 271.97 193.7 318.79 135.95 318.79C107.09 318.79 80.94 307.08 62.02 288.16C43.11 269.25 31.4 243.1 31.4 214.23L31.4 109.67L240.51 109.67Z" />
	<path id="Layer" class="shp9" d="M135.21 318.78C106.63 318.59 80.79 306.92 62.02 288.16C43.1 269.24 31.4 243.11 31.4 214.23L31.4 109.68L78.47 109.68L78.47 214.23C78.47 243.11 84.9 269.24 95.3 288.16C105.55 306.79 119.63 318.42 135.21 318.78Z" />
	<path id="Layer" class="shp10" d="M173.15 213.09C169.32 213.09 166.21 209.99 166.21 206.16L166.21 191.63C166.21 187.8 169.32 184.7 173.15 184.7C176.98 184.7 180.08 187.8 180.08 191.63L180.08 206.16C180.08 209.99 176.98 213.09 173.15 213.09Z" />
	<path id="Layer" class="shp10" d="M98.76 213.09C94.93 213.09 91.83 209.99 91.83 206.16L91.83 191.63C91.83 187.8 94.93 184.7 98.76 184.7C102.59 184.7 105.7 187.8 105.7 191.63L105.7 206.16C105.7 209.99 102.59 213.09 98.76 213.09Z" />
	<path id="Layer" class="shp9" d="M240.51 109.67L240.51 135.88C233.35 141.01 224.78 145.51 214.6 149.18C176.71 162.83 140.03 158.23 114.09 151C114.09 151 114.09 151 114.09 150.99C91.49 144.7 77.05 136.4 77.05 136.4C77.05 136.4 67.52 182.29 31.4 182.29L31.4 109.67L240.51 109.67Z" />
	<path id="Layer" class="shp5" d="M214.59 138.08C176.71 151.73 140.03 147.14 114.09 139.91C114.09 139.91 114.08 139.91 114.08 139.9C91.49 133.61 77.05 125.3 77.05 125.3C77.05 125.3 67.51 171.19 31.4 171.19C31.4 171.19 7.38 128.69 8.13 89.37C8.52 68.98 25.33 53.73 44.45 53.73C48.01 53.73 51.66 54.26 55.3 55.39C65.54 27.91 92.57 10.52 121.85 12.3C126.41 12.58 131 12.94 135.6 13.36C136.48 13.43 137.37 13.51 138.25 13.59C138.34 13.61 138.43 13.61 138.52 13.62C186.31 18.11 234.71 26.85 263.15 -4.62C263.15 -4.62 310.15 103.66 214.59 138.08L214.59 138.08Z" />
	<path id="Layer" class="shp4" d="M121.85 12.29C126.41 12.57 130.99 12.94 135.6 13.36C93.44 11.58 59.94 104.43 114.08 139.9C91.49 133.61 77.05 125.3 77.05 125.3C77.05 125.3 67.51 171.19 31.4 171.19C31.4 171.19 7.38 128.69 8.13 89.37C8.52 68.98 25.33 53.73 44.45 53.73C48.01 53.73 51.66 54.26 55.3 55.39C65.54 27.91 92.57 10.52 121.85 12.29Z" />
	<path id="Layer" class="shp11" d="M138.54 13.63C138.44 13.61 138.35 13.6 138.25 13.59C138.34 13.6 138.43 13.61 138.52 13.62L138.54 13.63Z" />
	<path id="Layer" class="shp12" d="M135.95 268.65C124.89 268.65 113.82 264.44 105.4 256.02C102.69 253.31 102.69 248.92 105.4 246.21C108.11 243.5 112.5 243.5 115.21 246.21C126.65 257.65 145.26 257.65 156.7 246.21C159.41 243.5 163.8 243.5 166.51 246.21C169.22 248.92 169.22 253.31 166.51 256.02C158.09 264.44 147.02 268.65 135.95 268.65L135.95 268.65Z" />
</svg>