<svg xmlns="http://www.w3.org/2000/svg" viewBox="0 0 512 444" width="91" height="79">
	<style>
		tspan { white-space:pre }
		.shp0 { fill: #5a5a5a } 
		.shp1 { fill: #444444 } 
		.shp2 { fill: #a8ebfa } 
		.shp3 { fill: #76e2f8 } 
		.shp4 { fill: #fdbf00 } 
		.shp5 { fill: #ececf1 } 
		.shp6 { fill: #e2e2e7 } 
		.shp7 { fill: #6e6e6e } 
	</style>
	<path id="Layer" class="shp0" d="M512 46L512 301L482 331L32.7 331L0 301L0 46C0 21.1 20.1 1 45 1L467 1C491.9 1 512 21.1 512 46Z" />
	<path id="Layer" class="shp1" d="M512 46L512 301L482 331L256 331L256 1L467 1C491.9 1 512 21.1 512 46Z" />
	<path id="Layer" class="shp2" d="M482 46L482 331L30 331L30 46C30 37.6 36.6 31 45 31L467 31C475.4 31 482 37.6 482 46Z" />
	<path id="Layer" class="shp3" d="M482 46L482 331L256 331L256 31L467 31C475.4 31 482 37.6 482 46Z" />
	<path id="Layer" class="shp0" d="M360.1 461.2L151.9 461.2L181.9 371.2C183.7 365.2 189.4 361 196 361L316 361C322.6 361 328.3 365.2 330.1 371.2L360.1 461.2Z" />
	<path id="Layer" class="shp1" d="M330.1 371.2L360.1 461.2L256 461.2L256 361L316 361C322.6 361 328.3 365.2 330.1 371.2Z" />
	<path id="Layer" class="shp4" d="M406 151C381.19 151 361 130.81 361 106C361 81.19 381.19 61 406 61C430.81 61 451 81.19 451 106C451 130.81 430.81 151 406 151Z" />
	<path id="Layer" class="shp5" d="M421 256L421 316C421 324.4 414.4 331 406 331L315.7 331C325.3 318.4 331 303.1 331 286C331 244.6 297.4 211 256 211C214.6 211 181 244.6 181 286C181 303.1 186.7 318.4 196.3 331L106 331C97.6 331 91 324.4 91 316L91 256C91 247.6 97.6 241 106 241L129.1 241C130.6 236.5 132.4 232.3 134.5 228.1L118 211.6C112.3 205.9 112.3 196.3 118 190.6L160.6 148C166.3 142.3 175.9 142.3 181.6 148L198.1 164.5C202.3 162.4 206.5 160.6 211 159.1L211 136C211 127.6 217.6 121 226 121L286 121C294.4 121 301 127.6 301 136L301 159.1C305.5 160.6 309.7 162.4 313.9 164.5L330.4 148C336.1 142.3 345.7 142.3 351.4 148L394 190.6C399.7 196.3 399.7 205.9 394 211.6L377.5 228.1C379.6 232.3 381.4 236.5 382.9 241L406 241C414.4 241 421 247.6 421 256Z" />
	<path id="Layer" class="shp6" d="M421 256L421 316C421 324.4 414.4 331 406 331L315.7 331C325.3 318.4 331 303.1 331 286C331 244.6 297.4 211 256 211L256 121L286 121C294.4 121 301 127.6 301 136L301 159.1C305.5 160.6 309.7 162.4 313.9 164.5L330.4 148C336.1 142.3 345.7 142.3 351.4 148L394 190.6C399.7 196.3 399.7 205.9 394 211.6L377.5 228.1C379.6 232.3 381.4 236.5 382.9 241L406 241C414.4 241 421 247.6 421 256Z" />
	<path id="Layer" class="shp7" d="M512 301L512 346C512 370.9 491.9 391 467 391L45 391C20.1 391 0 370.9 0 346L0 301L512 301Z" />
	<path id="Layer" class="shp0" d="M512 301L512 346C512 370.9 491.9 391 467 391L256 391L256 301L512 301Z" />
	<path id="Layer" class="shp7" d="M421 427C421 435.4 414.4 442 406 442L106 442C97.6 442 91 435.4 91 427C91 418.6 97.6 412 106 412L406 412C414.4 412 421 418.6 421 427Z" />
	<path id="Layer" class="shp0" d="M421 427C421 435.4 414.4 442 406 442L256 442L256 412L406 412C414.4 412 421 418.6 421 427Z" />
	<g id="Layer">
	</g>
	<g id="Layer">
	</g>
	<g id="Layer">
	</g>
	<g id="Layer">
	</g>
	<g id="Layer">
	</g>
	<g id="Layer">
	</g>
	<g id="Layer">
	</g>
	<g id="Layer">
	</g>
	<g id="Layer">
	</g>
	<g id="Layer">
	</g>
	<g id="Layer">
	</g>
	<g id="Layer">
	</g>
	<g id="Layer">
	</g>
	<g id="Layer">
	</g>
	<g id="Layer">
	</g>
</svg>