<?xml version="1.0" encoding="UTF-8" standalone="no" ?>
<!DOCTYPE svg PUBLIC "-//W3C//DTD SVG 1.1//EN" "http://www.w3.org/Graphics/SVG/1.1/DTD/svg11.dtd">
<svg xmlns="http://www.w3.org/2000/svg" xmlns:xlink="http://www.w3.org/1999/xlink" version="1.1" width="1080" height="1080" viewBox="0 0 1080 1080" xml:space="preserve">
<desc>Created with Fabric.js 5.2.4</desc>
<defs>
</defs>
<g transform="matrix(1 0 0 1 540 540)" id="2fab16a0-b531-4d87-a54f-bb0df3fdcc6f"  >
<rect style="stroke: none; stroke-width: 1; stroke-dasharray: none; stroke-linecap: butt; stroke-dashoffset: 0; stroke-linejoin: miter; stroke-miterlimit: 4; fill: rgb(255,255,255); fill-rule: nonzero; opacity: 1; visibility: hidden;" vector-effect="non-scaling-stroke"  x="-540" y="-540" rx="0" ry="0" width="1080" height="1080" />
</g>
<g transform="matrix(1 0 0 1 540 540)" id="c0584596-0a26-423c-a374-1fc886ea42d5"  >
</g>
<g transform="matrix(1 0 0 1 354.8 253.56)"  >
<rect style="stroke: none; stroke-width: 1; stroke-dasharray: none; stroke-linecap: butt; stroke-dashoffset: 0; stroke-linejoin: miter; stroke-miterlimit: 4; fill: rgb(255,255,255); fill-rule: nonzero; opacity: 1; visibility: hidden;" vector-effect="non-scaling-stroke"  x="-100" y="-100" rx="0" ry="0" width="200" height="200" />
</g>
<g transform="matrix(4.57 0 0 4.8 317.9 296.96)"  >
<polygon style="stroke: none; stroke-width: 1; stroke-dasharray: none; stroke-linecap: butt; stroke-dashoffset: 0; stroke-linejoin: miter; stroke-miterlimit: 4; fill: rgb(113,2,2); fill-rule: evenodd; opacity: 1;" vector-effect="non-scaling-stroke"  points="-47.94,11.84 -48.39,44.14 47.95,-11.85 48.39,-44.14 " />
</g>
<g transform="matrix(4.57 0 0 4.8 317.9 553.76)"  >
<polygon style="stroke: none; stroke-width: 1; stroke-dasharray: none; stroke-linecap: butt; stroke-dashoffset: 0; stroke-linejoin: miter; stroke-miterlimit: 4; fill: rgb(113,2,2); fill-rule: evenodd; opacity: 1;" vector-effect="non-scaling-stroke"  points="-47.94,11.85 -48.39,44.14 47.95,-11.85 48.39,-44.14 " />
</g>
<g transform="matrix(4.57 0 0 4.8 762.14 817.23)"  >
<polygon style="stroke: none; stroke-width: 1; stroke-dasharray: none; stroke-linecap: butt; stroke-dashoffset: 0; stroke-linejoin: miter; stroke-miterlimit: 4; fill: rgb(113,2,2); fill-rule: evenodd; opacity: 1;" vector-effect="non-scaling-stroke"  points="-47.95,11.85 -48.38,44.14 47.94,-11.84 48.38,-44.14 " />
</g>
<g transform="matrix(4.57 0 0 4.8 762.14 560.57)"  >
<polygon style="stroke: none; stroke-width: 1; stroke-dasharray: none; stroke-linecap: butt; stroke-dashoffset: 0; stroke-linejoin: miter; stroke-miterlimit: 4; fill: rgb(113,2,2); fill-rule: evenodd; opacity: 1;" vector-effect="non-scaling-stroke"  points="-47.95,11.84 -48.38,44.14 47.94,-11.85 48.38,-44.14 " />
</g>
<g transform="matrix(4.57 0 0 4.8 319.32 560.57)"  >
<polygon style="stroke: none; stroke-width: 1; stroke-dasharray: none; stroke-linecap: butt; stroke-dashoffset: 0; stroke-linejoin: miter; stroke-miterlimit: 4; fill: rgb(113,2,2); fill-opacity: 0.7; fill-rule: evenodd; opacity: 1;" vector-effect="non-scaling-stroke"  points="-48.7,-11.85 48.27,44.14 48.7,11.84 -48.26,-44.14 " />
</g>
<g transform="matrix(4.57 0 0 4.8 760.44 296.96)"  >
<polygon style="stroke: none; stroke-width: 1; stroke-dasharray: none; stroke-linecap: butt; stroke-dashoffset: 0; stroke-linejoin: miter; stroke-miterlimit: 4; fill: rgb(113,2,2); fill-opacity: 0.7; fill-rule: evenodd; opacity: 1;" vector-effect="non-scaling-stroke"  points="-48.7,-11.85 48.26,44.14 48.7,11.84 -48.26,-44.14 " />
</g>
<g transform="matrix(4.57 0 0 4.8 760.44 553.76)"  >
<polygon style="stroke: none; stroke-width: 1; stroke-dasharray: none; stroke-linecap: butt; stroke-dashoffset: 0; stroke-linejoin: miter; stroke-miterlimit: 4; fill: rgb(113,2,2); fill-opacity: 0.7; fill-rule: evenodd; opacity: 1;" vector-effect="non-scaling-stroke"  points="-48.7,-11.85 48.26,44.14 48.7,11.85 -48.26,-44.14 " />
</g>
<g transform="matrix(4.57 0 0 4.8 319.32 817.23)"  >
<polygon style="stroke: none; stroke-width: 1; stroke-dasharray: none; stroke-linecap: butt; stroke-dashoffset: 0; stroke-linejoin: miter; stroke-miterlimit: 4; fill: rgb(113,2,2); fill-opacity: 0.7; fill-rule: evenodd; opacity: 1;" vector-effect="non-scaling-stroke"  points="-48.7,-11.84 48.27,44.14 48.7,11.85 -48.26,-44.14 " />
</g>
</svg>