<svg xmlns="http://www.w3.org/2000/svg" viewBox="0 0 512 512" width="50" height="50">
	<style>
		tspan { white-space:pre }
		.shp0 { fill: none } 
		.shp1 { fill: #c2c2d0 } 
	</style>
	<g id="Layer">
		<path id="canvas_background" class="shp0" d="M-1 -1L581 -1L581 401L-1 401L-1 -1Z" />
	</g>
	<g id="Layer">
		<path id="svg_3" fill-rule="evenodd" class="shp1" d="M256 135.03C383 135.03 486 189.16 486 256C486 322.84 383 376.97 256 376.97C129 376.97 26 322.84 26 256C26 189.16 129 135.03 256 135.03ZM256 147.11C132.88 147.11 38.08 199 38.08 256C38.08 313 132.81 364.89 256 364.89C379.12 364.89 473.92 313 473.92 256C473.92 199 379.19 147.11 256 147.11ZM96.01 323.78L119.51 202.52L170.33 202.52C185.56 202.52 196.78 206.48 203.75 214.53C217.11 229.91 212.23 260.6 193.47 277.85C176.51 293.73 158.18 291.58 128.64 291.58L122.38 323.78L96.01 323.78ZM182.83 246.3C188.15 218.7 169.61 221.64 142.29 221.64L132.45 272.39C157.1 272.39 177.15 275.4 182.83 246.3ZM255.71 170.25L249.46 202.45C272.1 202.45 293.09 200.8 303.22 210.14C313.86 219.92 308.76 232.42 297.26 291.43L270.66 291.43C281.73 234.37 283.82 229.62 279.79 225.31C275.91 221.14 267.07 222 245.72 222L232.21 291.43L205.97 291.43L229.48 170.25L255.71 170.25ZM302.14 323.78L325.72 202.52L376.53 202.52C391.77 202.52 402.98 206.48 409.96 214.53C423.32 229.91 418.44 260.6 399.68 277.85C383.07 293.37 365.9 291.58 334.85 291.58L328.59 323.78L302.14 323.78ZM348.43 221.64L338.58 272.39C362.59 272.39 383.22 275.84 388.97 246.3C394.29 218.7 375.89 221.64 348.43 221.64Z" />
	</g>
</svg>