<svg xmlns="http://www.w3.org/2000/svg" viewBox="0 0 512 512" width="50" height="50">
	<style>
		tspan { white-space:pre }
		.shp0 { fill: none } 
		.shp1 { fill: #c2c2d0 } 
		.shp2 { fill: #ffffff } 
	</style>
	<g id="Layer">
		<path id="canvas_background" class="shp0" d="M-1 -1L581 -1L581 401L-1 401L-1 -1Z" />
	</g>
	<g id="Layer">
		<path id="ellipse" class="shp1" d="M256 512C114.43 512 0 397.57 0 256C0 114.43 114.43 0 256 0C397.57 0 512 114.43 512 256C512 397.57 397.57 512 256 512Z" />
		<path id="logo" fill-rule="evenodd" class="shp2" d="M282.9 369.2C280.4 365 277.7 360.9 275.3 356.6C266.2 340.3 257.1 324.2 248 307.9C247.7 307.5 247.5 307.1 247.2 306.6C245.7 307 244.3 307.4 242.8 307.7C222.7 312.9 202.8 318.1 182.7 323.2C180.3 323.8 178 324.5 175.6 324.5C170.8 324.5 167.1 322.4 164.6 318.3C164 317.3 163.5 316.3 163.1 315.1C144.7 275.3 126.2 235.4 107.9 195.7C104.6 188.6 101.3 181.4 98.2 174.4C97.4 172.6 96.9 170.7 96.2 168.8C96.1 168.5 95.9 168.3 95.8 168C95.8 167.2 95.8 166.5 95.8 165.7C95.9 165.3 96.2 165.1 96.3 164.7C96.7 163.6 97.4 162.8 98.6 162.3C99.5 161.9 100.4 161.7 101.3 161.7C106.1 161.2 110.9 160.8 115.7 160.4C122.3 159.9 129 159.4 135.5 158.9C144 158.3 152.5 157.5 161 156.9C162.4 156.8 163.8 156.6 165 156.4C166.4 156.4 167.8 156.4 169.3 156.4C169.6 156.5 169.8 156.5 170.1 156.7C172.1 157 173.6 158 174.8 159.7C175.8 161.2 176.8 162.7 177.8 164.2C202.8 206.1 227.9 247.9 252.9 289.8C253.2 290.2 253.4 290.7 253.8 291.2C286 283.5 318.2 275.8 350.6 268C350.2 267.5 350.1 267.1 349.8 266.9C339.4 252.3 329.2 237.7 318.9 223.1C318.5 222.6 318.1 222 317.9 221.3C317.1 219.8 317.5 218.5 319 217.8C320.1 217.3 321.3 216.8 322.5 216.5C328.4 215.5 334.4 214.5 340.2 213.5C348 212.2 355.9 210.8 363.6 209.6C365.6 209.2 367.5 209 369.5 208.7C371.3 208.4 372.9 209 374.4 210C375.9 211.1 377.2 212.5 378.4 213.9C386.4 223.7 394.3 233.6 402.3 243.4C406.5 248.6 410.8 253.8 414.9 258.9C415.3 259.3 415.5 259.8 415.8 260.2C415.8 260.8 415.8 261.6 415.8 262.2C415 263.5 413.7 263.8 412.4 264.2C398.4 268 384.4 271.6 370.4 275.4C370 275.5 369.5 275.7 369 275.8C369.4 276.3 369.5 276.6 369.8 276.9C376.2 285.5 382.5 293.9 389 302.5C395.4 311.1 401.7 319.7 408.1 328.3C408.6 329.1 409.1 329.8 409.5 330.7C410.3 332.2 409.9 333.5 408.5 334.4C407.6 335 406.7 335.5 405.7 335.8C402.5 337.1 399.4 338.2 396.2 339.3C370.2 348.6 344.2 358 318.2 367.3C311.9 369.6 305.6 371.7 299.1 373.9C297.5 374.4 295.7 374.8 294.1 375.3C292.8 375.6 291.5 375.6 290.1 375.6C286.8 374.5 284.7 372.1 282.9 369.2ZM151.6 166.7C147.3 167.1 143.1 167.5 138.9 167.8C133.6 168.3 128.2 168.7 122.9 169.2C119.4 169.5 115.8 169.8 112.3 170.1C111.4 170.2 111.2 170.5 111.3 171.4C111.4 171.9 111.6 172.4 111.8 172.8C112.2 173.7 112.6 174.4 113.1 175.3C129.4 208.8 145.7 242.3 161.8 275.8C167.1 286.7 172.3 297.5 177.5 308.4C177.8 309 178.1 309.3 178.8 309.2C179.7 309.1 180.6 308.9 181.3 308.7C198.7 304.5 216 300.4 233.4 296.3C235.2 295.9 237.1 295.4 238.8 295C240.1 294.6 240.4 294 239.9 292.7C239.6 292.1 239.4 291.6 239 291.1C215.1 249.9 191.4 208.9 167.6 167.8C166.2 165.5 166.2 165.5 163.8 165.7C159.8 166.1 155.7 166.5 151.6 166.7ZM261.3 304.1C268.4 316.3 275.6 328.7 282.8 341C285.6 345.8 288.5 350.6 291.4 355.4C292 356.4 292.8 357.4 293.5 358.3C294.4 359.2 295.5 359.4 296.7 358.9C297.2 358.6 297.7 358.5 298.2 358.4C319.3 351.2 340.4 344 361.4 336.9C371 333.6 380.6 330.5 390.2 327.2C390.7 327.1 391.3 326.8 391.8 326.6C392.8 326.1 392.9 325.6 392.3 324.7C391.9 324.1 391.4 323.3 391 322.7C387.2 317.4 383.3 312.2 379.5 306.9C373.2 298.3 367 289.7 360.7 281.1C360.2 280.3 359.7 279.6 359.1 278.8C358.5 278 357.7 277.7 356.7 278C355.9 278.3 355.3 278.4 354.6 278.6C344.4 281.3 334.2 283.9 323.9 286.6C303.3 291.9 282.7 297.3 262.2 302.6C261.7 302.7 261.2 302.9 260.7 303.1C261 303.6 261.1 303.9 261.3 304.1ZM361.1 265.6C361.4 265.6 361.6 265.5 361.9 265.5C374 262.5 386.3 259.6 398.4 256.5C398.9 256.4 399.4 256.2 399.9 256C401 255.5 401.3 254.9 400.4 253.9C400.3 253.8 400.1 253.5 400 253.4C391 242 382.2 230.7 373.2 219.4C373.1 219.1 372.8 218.9 372.7 218.8C371.8 217.8 370.8 217.5 369.4 217.8C358.5 219.8 347.7 221.7 336.8 223.7C335.5 224 334.1 224.1 332.9 224.5C331.8 224.8 331.6 225.3 332.1 226.1C332.4 226.5 332.6 227 333 227.4C342.1 239.8 351.1 252.3 360.1 264.6C360.5 264.9 360.7 265.3 361.1 265.6Z" />
	</g>
</svg>