<svg xmlns="http://www.w3.org/2000/svg" viewBox="0 0 847 847" width="50" height="50">
	<style>
		tspan { white-space:pre }
		.shp0 { fill: none } 
		.shp1 { fill: #c2c2d0 } 
		.shp2 { fill: #fefefe } 
	</style>
	<g id="Layer">
		<path id="canvas_background" class="shp0" d="M-1 -1L581 -1L581 401L-1 401L-1 -1Z" />
	</g>
	<g id="Layer">
		<path id="svg_1" class="shp1" d="M423 765C233.87 765 81 612.13 81 423C81 233.87 233.87 81 423 81C612.13 81 765 233.87 765 423C765 612.13 612.13 765 423 765Z" />
		<path id="svg_2" class="shp2" d="M425 237C452 237 477 242 499 252C499 254 499 256 499 257C499 270 504 281 512 289L513 289C521 298 532 303 545 303C552 303 558 301 564 299C591 328 608 366 612 409L557 410C554 379 540 351 519 330C495 306 462 291 425 291C408 291 391 295 376 301L351 252C374 242 399 237 425 237ZM612 430C611 472 595 511 570 541C565 539 559 538 553 538C540 538 529 543 521 551L521 551C512 559 507 571 507 583C507 586 507 588 508 591C483 603 455 610 425 610C398 610 371 604 348 593L373 545C389 552 407 556 425 556C462 556 495 541 519 517C541 495 556 465 558 431L612 430ZM328 583C316 575 304 566 294 556L293 555C267 529 249 495 242 458C246 455 249 453 253 450C261 441 266 430 266 417C266 405 261 393 253 385C250 383 247 380 244 378C253 345 270 315 293 292L294 292C305 280 318 270 332 262L357 310C347 316 339 322 332 330C308 354 293 387 293 424C293 460 308 493 332 517C338 524 346 530 354 535L328 583Z" />
		<path id="svg_3" class="shp2" d="M546 291C526.64 291 511 275.36 511 256C511 236.65 526.64 221 546 221C565.36 221 581 236.65 581 256C581 275.36 565.36 291 546 291Z" />
		<path id="svg_4" class="shp2" d="M554 619C534.64 619 519 603.36 519 584C519 564.64 534.64 549 554 549C573.36 549 589 564.64 589 584C589 603.36 573.36 619 554 619Z" />
		<path id="svg_5" class="shp2" d="M217 452C197.65 452 182 436.36 182 417C182 397.64 197.65 382 217 382C236.35 382 252 397.64 252 417C252 436.36 236.35 452 217 452Z" />
	</g>
</svg>