<svg xmlns="http://www.w3.org/2000/svg" viewBox="0 0 256 304" width="42" height="50"><style>tspan { white-space:pre }.shp0 { fill: #bab8c6 } </style><path fill-rule="evenodd" class="shp0" d="M13.1 287.31C16.46 287.31 19.49 286.14 22.28 281.73L26.59 284.63C24.04 289.03 19.68 292.61 12.35 292.61C2.7 292.61 0 286.37 0 279.51C0 277.95 0.14 276.5 0.38 274.93C2.04 263.29 6.53 257.36 17.46 257.36C25.5 257.36 28.77 262.47 28.77 267.86C28.77 268.24 28.77 269.9 28.72 269.9L24.21 269.9L24.21 268.1C24.21 264.41 21.99 262.38 17.45 262.38C10.73 262.38 7.95 266.87 6.81 274.72C6.58 276.52 6.39 278.22 6.39 279.74C6.39 284.28 7.9 287.31 13.1 287.31ZM42.67 265.64C50.1 265.64 52.89 269.99 52.89 275.86C52.89 276.9 52.8 277.94 52.66 279.07C51.38 287.87 47.54 292.56 38.79 292.56C31.32 292.56 28.62 287.96 28.62 282.19C28.62 281.93 28.63 281.67 28.64 281.41C28.65 281.15 28.67 280.89 28.69 280.63C28.71 280.37 28.73 280.11 28.76 279.85C28.79 279.59 28.82 279.33 28.86 279.07C30.14 270.13 33.92 265.64 42.67 265.64ZM46.6 275.81C46.6 271.93 45.04 270.65 41.92 270.65C38.04 270.65 36.15 272.64 35.2 279.07C35.01 280.35 34.92 281.49 34.92 282.43C34.92 286.26 36.43 287.54 39.5 287.54C43.34 287.54 45.37 285.56 46.32 279.07C46.51 277.84 46.6 276.75 46.6 275.81ZM74.9 257.83L81.19 257.83L75.89 294.03L71.35 294.03L70.88 291.09C69.03 292.65 66.67 292.6 64.25 292.6C58.53 292.6 54.27 289.9 54.27 282.66C54.27 282.39 54.28 282.13 54.29 281.86C54.29 281.6 54.31 281.33 54.33 281.07C54.35 280.8 54.37 280.54 54.4 280.28C54.43 280.01 54.47 279.75 54.51 279.49C55.93 269.55 60.33 266 68.18 266C69.84 266 72.3 266.69 73.67 267.73C73.39 267.02 73.34 267.27 73.43 266.51L74.9 257.83ZM70.4 286.17L72.54 271.6C71.07 270.79 69.51 270.46 67.47 270.46C64.35 270.46 61.94 271.79 60.85 279.31C60.66 280.69 60.52 281.96 60.52 283.05C60.52 285.93 61.46 287.73 64.92 287.73C66.2 287.73 68.28 287.44 70.4 286.17ZM95.01 265.64C102.86 265.64 104.65 271.7 104.65 276.43C104.65 277.84 104.37 279.55 104.13 281.96L87.06 281.96C86.96 281.96 86.91 282.86 86.91 283.47C86.91 286.6 88.33 287.54 91.83 287.54C95.1 287.54 96.94 286.12 98.31 284.04L103.09 285.98C100.87 290.24 96.7 292.56 91.12 292.56C83.93 292.56 80.67 288.72 80.67 282.34C80.67 281.3 80.76 280.21 80.91 279.07C82.28 269.75 86.35 265.64 95.01 265.64L95.01 265.64ZM98.27 277.14C98.37 277.14 98.41 275.88 98.41 275.41C98.41 272.62 97.04 270.99 94.25 270.99C90.65 270.99 88.9 274.72 87.86 277.14L98.27 277.14ZM119.36 265.07L115.58 289.2L119.08 289.2L118.51 294.03L105.17 294.03L105.73 289.2L109.24 289.2L113.02 265.07L109.52 265.07L110.08 260.24L123.43 260.24L122.86 265.07L119.36 265.07ZM149.97 272.31L149.97 272.31L148.37 272.31C147.95 272.31 146.91 271.7 146.1 271.32C146.58 272.45 146.76 273.16 146.76 274.2C146.76 281.58 140.9 284.42 134.32 284.42C132.86 284.42 131.44 284.28 130.21 283.99L129.59 283.9C128.88 283.9 128.45 284.28 128.45 284.99C128.45 285.46 128.69 285.79 129.73 285.98L138.86 287.69C143.92 288.63 145.67 290.81 145.67 293.6C145.67 301.79 138.01 303.26 131.57 303.26C126.46 303.26 119.8 301.89 119.8 295.5C119.8 292.2 121.54 289.37 124.38 287.66C123.81 286.95 123.53 286.18 123.53 285.43C123.53 283.72 124.76 282.45 126.18 281.7C125.28 280.56 124.52 278.88 124.52 276.8C124.52 269.37 130.29 266.1 137.06 266.1C139.42 266.1 141.93 266.98 143.78 268.16L147.09 267.48L151.68 267.48L149.97 272.31ZM128.07 290.24C126.65 291.75 126.03 292.74 126.03 294.87C126.03 297.29 127.74 298.37 132.28 298.37C135.26 298.37 139.37 297.9 139.37 294.07C139.37 292.89 138.76 292.22 136.96 291.89L128.07 290.24ZM135.02 279.5C138.57 279.5 140.56 277.6 140.56 274.1C140.56 271.79 139.18 270.6 136.34 270.6C132.8 270.6 130.76 272.64 130.76 276.14C130.76 278.51 132.28 279.5 135.02 279.5ZM166.78 265.64C172.08 265.64 174.21 269.55 174.2 274.05C174.2 274.8 174.11 276.12 174.01 276.92L171.7 294.03L165.41 294.03L167.72 277.06C167.82 276.49 167.87 274.95 167.87 274.43C167.87 272.26 167.01 271.11 164.65 271.11C162.71 271.11 160.44 272.76 158.59 273.9L155.85 294.03L149.56 294.03L153.2 267.48L158.4 267.48L158.83 269.25C161.76 266.94 164.13 265.64 166.78 265.64ZM186.16 287.38C186.16 287.95 186.39 289.2 187.1 289.2L189.14 289.2L188.43 294.03L185.21 294.03C181.52 294.03 179.72 291.66 179.72 288.35C179.72 287.83 179.77 286.55 179.86 285.93L181.76 273.11C181.8 272.73 182.04 272.31 182.42 272.31L177.83 272.31L178.49 267.48L188.95 267.48L186.21 286.73L186.16 287.38ZM190.56 257.74L189.7 262.99C189.66 263.42 189.66 265.07 189.28 265.07L183.13 265.07C182.75 265.07 182.75 264.14 182.79 263.71L183.65 256.91C183.7 256.43 183.7 257.83 184.07 257.83L190.22 257.83C190.61 257.83 190.61 257.26 190.56 257.74ZM203.06 287.54C205.23 287.54 206.22 286.9 207.69 286L210.63 289.61C208.31 291.55 205.33 292.63 201.64 292.63C197.66 292.63 194.35 290.95 194.35 286.45C194.35 285.98 194.35 285.6 194.45 285.08L196.15 273.63C196.2 273.16 196.62 274.72 197.05 272.31L192.6 272.31L193.26 267.48L197.09 267.48L198.28 258.98L204.9 256.86L203.43 267.48L212.14 267.48L209.96 272.31L202.77 272.31L200.79 285.37L200.74 285.46C200.74 286.88 201.5 287.54 203.06 287.54ZM226.14 265.64C234 265.64 235.79 271.7 235.79 276.43C235.79 277.84 235.51 279.55 235.27 281.96L218.2 281.96C218.1 281.96 218.05 282.86 218.05 283.47C218.05 286.6 219.47 287.54 222.97 287.54C226.24 287.54 228.08 286.12 229.45 284.04L234.23 285.98C232.01 290.24 227.84 292.56 222.26 292.56C215.07 292.56 211.81 288.72 211.81 282.34C211.81 281.3 211.9 280.21 212.04 279.07C213.42 269.75 217.48 265.64 226.14 265.64L226.14 265.64ZM229.41 277.14C229.5 277.14 229.55 275.88 229.55 275.41C229.55 272.62 228.18 270.99 225.39 270.99C221.79 270.99 220.04 274.72 219 277.14L229.41 277.14ZM253.21 265.64C254.1 265.64 255.05 265.92 256 266.11L255.19 271.59C254.15 271.45 253.06 271.63 251.93 271.63C250.13 271.63 248.24 272.48 246.58 273.47L243.79 294.03L237.45 294.03L241.09 267.48L246.3 267.48L246.67 268.97C248.8 266.94 250.93 265.64 253.2 265.64L253.21 265.64ZM92.54 238.81C92.54 238.81 92.54 238.81 92.53 238.81C92.54 238.81 92.54 238.81 92.54 238.81L92.54 238.81ZM92.53 238.81C64.15 232.27 39.02 213.8 31.18 184.79C23.33 155.75 34.01 126.47 51.45 103.2C60.17 91.57 70.37 81.13 80.98 71.22C90.86 62 101.74 53.52 110.69 43.37C119.91 32.9 131.45 14.16 122.69 0C138.59 11.87 151.41 31.72 149.26 52.16C147.55 68.47 135.31 85.08 147.3 100.48C154.76 110.05 169.85 108.04 175.42 98.8L175.01 99.24C175.25 98.86 175.47 98.47 175.68 98.07C175.89 97.68 176.08 97.27 176.25 96.86C176.42 96.45 176.58 96.03 176.72 95.6C176.86 95.17 176.98 94.74 177.08 94.31L177.04 94.98C177.12 94.66 177.2 94.34 177.26 94.02C177.32 93.7 177.37 93.37 177.42 93.05C177.46 92.72 177.49 92.39 177.52 92.07C177.54 91.74 177.55 91.41 177.55 91.08C177.5 92.19 177.33 93.26 177.08 94.31C177.11 92.89 176.86 91.31 176.09 89.45L177.55 90.24C205.5 104.73 228.06 130.04 227.43 162.93C226.66 202.9 189.42 230.87 153.38 238.83C170.44 232.11 185.64 218.8 187.71 199.66C189.62 182.01 180.16 166.78 167.34 155.53C155.16 144.81 140.62 137.91 127.37 128.77C119.73 123.5 108.14 112.93 112.22 102.21C106.91 106.78 102.72 113.17 101.07 119.99C97.76 133.61 106.16 144.21 114.83 153.6C123.61 163.08 122.93 179.34 108.13 182.59C101.79 183.96 95.08 181.42 91.25 176.2C87.13 170.58 88.04 164.83 89.7 158.55C75.87 168.34 64.75 183.24 64.79 200.79C64.82 216.89 78.22 232.62 92.53 238.81Z" /></svg>