<svg xmlns="http://www.w3.org/2000/svg" viewBox="0 0 512 512" width="50" height="50">
	<style>
		tspan { white-space:pre }
		.shp0 { fill: none } 
		.shp1 { fill: #c2c2d0 } 
	</style>
	<g id="Layer">
		<path id="canvas_background" class="shp0" d="M-1 -1L581 -1L581 401L-1 401L-1 -1Z" />
	</g>
	<g id="Layer">
		<path id="svg_2" fill-rule="evenodd" class="shp1" d="M238.2 481.25L181.88 447.94C173.48 443.19 177.59 441.55 180.33 440.63C191.56 436.71 193.84 435.89 205.79 429.04C207.07 428.31 208.72 428.59 209.99 429.41L253.26 455.06C254.81 455.97 257 455.97 258.46 455.06L427.05 357.75C428.61 356.84 429.61 355.01 429.61 353.19L429.61 158.58C429.61 156.67 428.61 154.93 426.96 153.93L258.46 56.72C256.91 55.8 254.81 55.8 253.26 56.72L84.85 154.02C83.21 154.93 82.2 156.76 82.2 158.67L82.2 353.19C82.2 355.01 83.21 356.84 84.85 357.66L131.04 384.32C156.14 396.82 171.48 382.12 171.48 367.25L171.48 175.2C171.48 172.46 173.67 170.36 176.41 170.36L197.76 170.36C200.41 170.36 202.69 172.46 202.69 175.2L202.69 367.34C202.69 400.75 184.44 419.91 152.76 419.91C143 419.91 135.33 419.91 113.97 409.33L69.79 383.86C58.84 377.56 52.08 365.79 52.08 353.1L52.08 158.58C52.08 145.99 58.84 134.12 69.79 127.82L238.2 30.52C248.88 24.5 263.03 24.5 273.62 30.52L442.21 127.91C453.16 134.21 459.92 145.99 459.92 158.67L459.92 353.19C459.92 365.79 453.16 377.56 442.21 383.95L273.62 481.25C268.23 484.36 262.11 486 255.91 486C249.79 486 243.58 484.36 238.2 481.25ZM392.01 294.22C392.01 330.92 361.34 352.01 308.03 352.1C234.19 352.1 218.76 318.23 218.76 289.84C218.76 287.2 220.86 285.01 223.6 285.01L245.41 285.01C247.88 285.01 249.88 286.74 250.25 289.11C253.54 311.29 263.3 322.52 307.94 322.52C343.45 322.52 358.6 314.49 358.6 295.69C358.6 284.82 354.31 276.7 299.08 271.31C252.99 266.75 224.42 256.53 224.42 219.65C224.42 185.6 253.08 165.34 301.18 165.34C355.22 165.34 381.97 184.05 385.34 224.3C385.44 225.67 384.98 227.04 384.07 228.05C383.15 229.05 381.87 229.6 380.51 229.6L358.6 229.6C356.32 229.6 354.31 227.96 353.85 225.77C348.56 202.4 335.78 194.91 301.18 194.91C262.39 194.91 257.92 208.42 257.92 218.55C257.92 230.79 263.21 234.35 315.61 241.28C367.36 248.13 392.01 257.8 392.01 294.22Z" />
	</g>
</svg>