<svg xmlns="http://www.w3.org/2000/svg" viewBox="0 0 181 96" width="94" height="50"><style>tspan { white-space:pre }.shp0 { fill: none } .shp1 { fill: #c2c2d2 } </style><g ><path class="shp0" d="M-1 -1L581 -1L581 401L-1 401L-1 -1Z" /></g><g ><path class="shp1" d="M1.7 85.3L7.5 85.3L7.5 62.3L16.6 82.3C17.6 84.7 19.1 85.6 22 85.6C24.9 85.6 26.2 84.7 27.3 82.3L36.3 62.3L36.3 85.3L42.1 85.3L42.1 62.3C42.1 60.1 41.2 59 39.3 58.4C34.9 57.1 31.9 58.2 30.6 61.2L21.8 81L13.2 61.2C11.9 58.2 8.9 57.1 4.5 58.4C2.6 59 1.7 60 1.7 62.3L1.7 85.3L1.7 85.3L1.7 85.3Z" /><path class="shp1" d="M46.9 66.6L52.7 66.6L52.7 79.2C52.7 79.9 52.9 81.5 56.1 81.6C57.8 81.6 68.7 81.6 68.8 81.6L68.8 66.5L74.6 66.5C74.6 66.5 74.6 87.1 74.6 87.2C74.6 92.3 68.3 93.4 65.4 93.4L47.1 93.4L47.1 89.5L65.5 89.5C69.2 89.1 68.8 87.2 68.8 86.6L68.8 85.1L56.4 85.1C50.6 85.1 46.9 82.5 46.9 79.6C46.9 79.3 47.1 66.7 46.9 66.6L46.9 66.6Z" /><path class="shp1" d="M172.3 51.9C168.7 51.8 166 52.2 163.6 53.1C162.9 53.4 161.9 53.4 161.8 54.2C162.2 54.6 162.2 55.1 162.5 55.6C163 56.5 164 57.7 164.8 58.3C165.7 59 166.7 59.7 167.7 60.4C169.4 61.5 171.4 62.1 173.1 63.2C174.1 63.8 175.1 64.6 176 65.3C176.5 65.7 176.8 66.2 177.4 66.5L177.4 66.4C177.1 66 177 65.4 176.7 65C176.3 64.6 175.8 64.2 175.4 63.7C174.1 62 172.5 60.4 170.8 59.2C169.4 58.2 166.2 56.9 165.7 55.2C165.7 55.2 165.7 55.2 165.6 55.1C166.6 55 167.7 54.7 168.7 54.4C170.2 54 171.6 54.1 173.2 53.7C173.9 53.5 174.6 53.3 175.3 53.1C175.3 53 175.3 52.8 175.3 52.7C174.5 51.9 173.9 50.8 173.1 50.1C170.8 48.1 168.3 46.2 165.7 44.6C164.3 43.7 162.5 43.1 161.1 42.4C160.6 42.1 159.7 42 159.4 41.6C158.6 40.6 158.1 39.3 157.6 38.2C156.3 35.7 155.1 33 153.9 30.4C153.1 28.7 152.6 26.9 151.6 25.3C147 17.7 142 13.1 134.3 8.6C132.6 7.7 130.7 7.3 128.6 6.8C127.5 6.8 126.4 6.7 125.3 6.6C124.6 6.3 123.9 5.4 123.2 5C120.7 3.4 114.1 -0.1 112.2 4.5C111 7.4 114 10.3 115 11.7C115.8 12.7 116.7 13.9 117.3 15C117.6 15.8 117.7 16.6 118 17.4C118.7 19.4 119.4 21.5 120.3 23.4C120.8 24.3 121.3 25.3 122 26.2C122.4 26.7 123 26.9 123.1 27.7C122.5 28.6 122.4 29.9 122.1 31C120.5 36 121.1 42.3 123.4 46C124.1 47.1 125.8 49.6 128.1 48.6C130.1 47.8 129.7 45.3 130.2 43C130.3 42.5 130.2 42.1 130.5 41.8L130.5 41.9C131.1 43.1 131.7 44.4 132.3 45.6C133.7 47.8 136.1 50.1 138.1 51.6C139.2 52.4 140 53.8 141.4 54.3L141.4 54.2C141.4 54.2 141.4 54.2 141.3 54.2C141 53.8 140.6 53.6 140.3 53.3C139.5 52.5 138.6 51.5 138 50.6C136.1 48.1 134.5 45.3 133 42.5C132.3 41.1 131.7 39.6 131.1 38.2C130.8 37.7 130.8 36.9 130.4 36.6C129.7 37.6 128.7 38.4 128.3 39.6C127.5 41.5 127.4 43.9 127.1 46.3C126.9 46.3 127 46.3 126.9 46.4C125.5 46 125 44.6 124.4 43.3C123.1 40.1 122.8 35 124 31.4C124.3 30.5 125.7 27.5 125.1 26.6C124.8 25.8 123.9 25.3 123.4 24.6C122.8 23.8 122.2 22.7 121.8 21.7C120.7 19.2 120.2 16.4 119 13.9C118.5 12.7 117.5 11.5 116.8 10.5C116 9.3 115 8.4 114.3 7C114.1 6.5 113.8 5.7 114.1 5.2C114.2 4.8 114.4 4.7 114.7 4.6C115.3 4.1 116.9 4.7 117.5 5C119.2 5.7 120.5 6.3 121.9 7.2C122.5 7.6 123.2 8.5 124 8.7C124.3 8.7 124.6 8.7 124.9 8.7C126.3 9 127.9 8.8 129.3 9.2C131.7 10 133.8 11.1 135.7 12.3C141.5 16 146.4 21.3 149.6 27.6C150.1 28.6 150.4 29.6 150.8 30.6C151.7 32.8 152.9 35 153.8 37.2C154.7 39.3 155.6 41.4 157 43.2C157.7 44.1 160.3 44.6 161.6 45.1C162.5 45.5 163.9 45.9 164.7 46.3C166.2 47.2 167.7 48.3 169.2 49.3C169.9 49.9 172.2 51 172.3 51.9L172.3 51.9L172.3 51.9Z" /><path class="shp1" d="M126.8 13.2C126 13.2 125.5 13.3 125 13.4C125 13.4 125 13.4 125 13.5C125 13.5 125 13.5 125.1 13.5C125.5 14.2 126.1 14.7 126.5 15.3C126.9 16 127.2 16.7 127.5 17.4L127.6 17.3C128.2 16.9 128.5 16.1 128.5 15.1C128.2 14.8 128.2 14.5 128 14.2C127.7 13.7 127.1 13.5 126.8 13.2L126.8 13.2L126.8 13.2Z" /><path class="shp1" d="M79.1 85.3L95.9 85.3C97.9 85.3 99.7 84.9 101.3 84.2C103.8 83 105 81.5 105 79.4L105 75.1C105 73.4 103.6 71.9 100.9 70.8C99.5 70.3 97.7 70 95.9 70L88.9 70C86.5 70 85.4 69.3 85.1 67.7C85.1 67.5 85.1 67.3 85.1 67.2L85.1 64.6C85.1 64.5 85.1 64.3 85.1 64.1C85.4 62.9 86 62.6 88.1 62.4C88.3 62.4 88.5 62.4 88.6 62.4L105.2 62.4L105.2 58.5L88.9 58.5C86.5 58.5 85.3 58.6 84.2 59C80.8 60.1 79.2 61.8 79.2 64.8L79.2 68C79.2 70.6 82.1 72.9 87.1 73.4C87.6 73.4 88.2 73.4 88.8 73.4L94.8 73.4C95 73.4 95.2 73.4 95.4 73.4C97.2 73.6 98 73.9 98.6 74.6C99 75 99 75.3 99 75.7L99 79.1C99 79.5 98.7 80 98.2 80.5C97.7 81 96.8 81.3 95.7 81.3C95.5 81.3 95.3 81.3 95.1 81.3L79.1 81.3L79.1 85.3L79.1 85.3L79.1 85.3Z" /><path class="shp1" d="M141.3 78.5C141.3 82.5 144.3 84.7 150.3 85.1C150.9 85.1 151.4 85.2 152 85.2L167.2 85.2L167.2 81.3L151.9 81.3C148.5 81.3 147.2 80.5 147.2 78.4L147.2 58.4L141.4 58.4L141.3 78.5L141.3 78.5L141.3 78.5Z" /><path fill-rule="evenodd" class="shp1" d="M108.7 64.9C108.7 61.4 111.2 59.2 116.1 58.6C116.6 58.6 117.2 58.5 117.7 58.5L128.8 58.5C129.4 58.5 129.9 58.5 130.5 58.6C135.4 59.3 137.8 61.4 137.8 64.9L137.8 78.7C137.8 81.6 136.8 83.1 134.4 84.1L140.1 89.3L133.4 89.3L128.8 85.1L124.1 85.4L117.9 85.4C116.9 85.4 115.7 85.3 114.5 85C110.5 83.9 108.7 81.9 108.7 78.7L108.7 64.9ZM115.1 79C115.4 80.6 116.9 81.5 119.2 81.5L124.5 81.5L119.7 77.1L126.4 77.1L130.6 80.9C131.4 80.5 131.9 79.8 132.1 79C132.1 78.8 132.1 78.6 132.1 78.4C132.1 78.2 132.1 64.8 132.1 64.7C131.8 63.2 130.3 62.3 128 62.3L119.2 62.3C116.6 62.3 114.9 63.4 114.9 65.2L115 78.4C115 78.6 115.1 78.8 115.1 79Z" /></g></svg>