<svg xmlns="http://www.w3.org/2000/svg" viewBox="0 0 512 512" width="50" height="50"><style>tspan { white-space:pre }.shp0 { fill: none } .shp1 { fill: #c2c2d0 } </style><g ><path class="shp0" d="M-1 -1L581 -1L581 401L-1 401L-1 -1Z" /></g><g ><path fill-rule="evenodd" class="shp1" d="M253.81 1.78C274.48 1.68 296.04 3.26 316.82 6.72C349.65 12.19 377.3 36.82 377.3 69.59L377.3 184.77C377.3 218.55 350.46 246.24 316.82 246.24L196 246.24C154.98 246.24 120.44 281.46 120.44 321.38L120.44 376.65L78.85 376.65C43.69 376.65 23.16 351.14 14.56 315.33C2.96 267.22 3.46 238.46 14.56 192.39C24.19 152.19 54.97 131.06 90.13 131.06L256.49 131.06L256.49 115.7L135.52 115.7L135.52 69.59C135.52 34.69 144.82 15.76 196 6.72C213.38 3.64 233.13 1.88 253.81 1.78ZM165.69 61.98C165.69 74.69 175.85 84.96 188.39 84.96C200.89 84.96 211.09 74.69 211.09 61.98C211.09 49.23 200.89 38.86 188.39 38.86C175.85 38.86 165.69 49.23 165.69 61.98Z" /><path fill-rule="evenodd" class="shp1" d="M392.39 131.06L437.78 131.06C472.98 131.06 489.58 157.4 498.26 192.39C510.36 240.99 510.89 277.43 498.26 315.33C486.04 352.13 472.94 376.65 437.78 376.65L256.49 376.65L256.49 392.02L377.3 392.02L377.3 438.12C377.3 473.02 347.28 490.77 316.82 499.58C271.01 512.88 234.29 510.84 196 499.58C164.03 490.18 135.52 470.9 135.52 438.12L135.52 322.94C135.52 289.79 162.91 261.47 196 261.47L316.82 261.47C357.08 261.47 392.39 226.42 392.39 184.77L392.39 131.06ZM301.74 445.73C301.74 458.47 311.94 468.85 324.44 468.85C336.98 468.85 347.14 458.47 347.14 445.73C347.14 433.02 336.98 422.75 324.44 422.75C311.94 422.75 301.74 433.02 301.74 445.73Z" /></g></svg>