<svg xmlns="http://www.w3.org/2000/svg" viewBox="0 0 512 444" width="91" height="79">
	<style>
		tspan { white-space:pre }
		.shp0 { fill: #f4af9d } 
		.shp1 { fill: #3b485b } 
		.shp2 { fill: #515f75 } 
		.shp3 { fill: #f2f2f2 } 
		.shp4 { fill: #f74866 } 
		.shp5 { fill: #e6e6e6 } 
		.shp6 { fill: #f9c2af } 
		.shp7 { fill: #ea9e8f } 
		.shp8 { fill: #293544 } 
		.shp9 { fill: #e06e86 } 
		.shp10 { fill: #eaad18 } 
		.shp11 { fill: #ffc627 } 
		.shp12 { fill: #ffffff } 
	</style>
	<path id="Layer" class="shp0" d="M185.2 351.96C180.84 351.96 177.3 348.43 177.3 344.07L177.3 289.71C177.3 285.35 180.84 281.82 185.2 281.82C189.55 281.82 193.09 285.35 193.09 289.71L193.09 344.07C193.09 348.43 189.55 351.96 185.2 351.96Z" />
	<path id="Layer" class="shp1" d="M490.71 454.02L490.71 512L221.98 512L236.51 454.02C236.51 429.11 256.7 408.92 281.61 408.92L445.61 408.92C470.52 408.92 490.71 429.11 490.71 454.02Z" />
	<path id="Layer" class="shp2" d="M490.71 454.02L490.71 512L251.96 512L251.96 454.02C251.96 429.11 272.16 408.92 297.07 408.92L445.61 408.92C470.52 408.92 490.71 429.11 490.71 454.02Z" />
	<path id="Layer" class="shp1" d="M282.88 408.93L280.14 478.29L309.3 485.57L283.12 511.75L444.1 511.75L417.93 485.57L447.08 478.29L444.34 408.93" />
	<path id="Layer" class="shp3" d="M419.19 408.93L389.83 512L337.4 512L308.04 408.93" />
	<path id="Layer" class="shp4" d="M327.69 434.23L363.61 479.2L399.18 434.4L363.61 427.75L327.69 434.23Z" />
	<path id="Layer" class="shp5" d="M324.54 466.83L363.61 427.75L402.69 466.83L419.19 408.93L308.04 408.93L324.54 466.83Z" />
	<path id="Layer" class="shp6" d="M397.02 351.02L397.02 408.93L363.61 427.75L353.29 421.94L330.2 408.93L330.2 350.98L353.29 350.99L397.02 351.02Z" />
	<path id="Layer" class="shp4" d="M337.58 512L363.61 479.2L389.83 512" />
	<path id="Layer" class="shp7" d="M353.29 350.99L330.2 350.98L330.2 408.93L353.29 421.94L353.29 395.14C356.7 395.48 360.16 395.67 363.66 395.67C375.32 395.67 386.55 393.77 397.03 390.25L397.03 351.02L353.29 350.99Z" />
	<path id="Layer" class="shp7" d="M258.78 290.05C241.39 290.05 227.28 277.42 227.28 261.85C227.28 246.27 241.39 233.65 258.78 233.65L468.54 233.65C485.94 233.65 500.04 246.27 500.04 261.85C500.04 277.42 485.94 290.05 468.54 290.05" />
	<path id="Layer" class="shp6" d="M468.55 171.94L468.55 276.82C468.55 334.74 421.59 381.7 363.66 381.7C334.7 381.7 308.47 369.96 289.5 350.98C270.52 332.01 258.78 305.78 258.78 276.82L258.78 171.94L468.55 171.94Z" />
	<path id="Layer" class="shp7" d="M362.92 381.7C334.25 381.5 308.32 369.8 289.5 350.98C270.52 332 258.78 305.79 258.78 276.82L258.78 171.94L306 171.94L306 276.82C306 305.79 312.45 332 322.89 350.98C333.16 369.67 347.29 381.33 362.92 381.7L362.92 381.7Z" />
	<path id="Layer" class="shp8" d="M400.97 275.68C397.13 275.68 394.02 272.56 394.02 268.72L394.02 254.15C394.02 250.3 397.13 247.19 400.97 247.19C404.81 247.19 407.93 250.3 407.93 254.15L407.93 268.72C407.93 272.56 404.81 275.68 400.97 275.68Z" />
	<path id="Layer" class="shp8" d="M326.35 275.68C322.51 275.68 319.39 272.56 319.39 268.72L319.39 254.15C319.39 250.3 322.51 247.19 326.35 247.19C330.2 247.19 333.31 250.3 333.31 254.15L333.31 268.72C333.31 272.56 330.2 275.68 326.35 275.68Z" />
	<path id="Layer" class="shp7" d="M468.55 171.94L468.55 198.22C461.36 203.37 452.76 207.88 442.55 211.57C404.54 225.26 367.75 220.65 341.73 213.39C341.73 213.39 341.72 213.39 341.72 213.39C319.05 207.08 304.57 198.75 304.57 198.75C304.57 198.75 295.01 244.78 258.78 244.78L258.78 171.94L468.55 171.94Z" />
	<path id="Layer" class="shp2" d="M442.55 200.44C404.54 214.13 367.75 209.52 341.73 202.27C341.73 202.27 341.72 202.27 341.72 202.26C319.06 195.95 304.57 187.62 304.57 187.62C304.57 187.62 295.01 233.65 258.78 233.65C258.78 233.65 234.68 191.02 235.44 151.57C235.83 131.12 252.7 115.82 271.86 115.82C275.45 115.82 279.11 116.35 282.75 117.49C293.02 89.92 320.14 72.47 349.51 74.26C354.09 74.54 358.69 74.9 363.3 75.32C364.19 75.39 365.08 75.48 365.96 75.56C366.06 75.57 366.15 75.58 366.24 75.59C414.17 80.09 462.73 88.85 491.25 57.29C491.25 57.29 538.41 165.91 442.55 200.44L442.55 200.44Z" />
	<path id="Layer" class="shp1" d="M349.51 74.26C354.09 74.54 358.69 74.9 363.3 75.32C321.01 73.54 287.41 166.68 341.72 202.26C319.06 195.95 304.57 187.62 304.57 187.62C304.57 187.62 295.01 233.65 258.78 233.65C258.78 233.65 234.68 191.02 235.44 151.57C235.83 131.12 252.7 115.82 271.86 115.82C275.45 115.82 279.11 116.35 282.75 117.49C293.02 89.92 320.14 72.47 349.51 74.26L349.51 74.26Z" />
	<path id="Layer" class="shp0" d="M366.26 75.59C366.16 75.58 366.07 75.57 365.96 75.56C366.06 75.57 366.15 75.57 366.24 75.59L366.26 75.59Z" />
	<path id="Layer" class="shp9" d="M363.66 331.41C352.56 331.41 341.46 327.19 333.01 318.73C330.3 316.02 330.3 311.62 333.01 308.9C335.73 306.18 340.13 306.18 342.85 308.9C354.32 320.38 373 320.38 384.47 308.9C387.19 306.18 391.59 306.18 394.31 308.9C397.03 311.62 397.03 316.02 394.31 318.73C385.86 327.19 374.76 331.41 363.66 331.41L363.66 331.41Z" />
	<path id="Layer" class="shp0" d="M236.51 344.07L236.51 393.42L177.3 393.42L177.3 344.07C177.3 338.62 181.72 334.21 187.16 334.21L226.64 334.21C232.09 334.21 236.51 338.62 236.51 344.07L236.51 344.07Z" />
	<path id="Layer" class="shp6" d="M236.51 344.07L236.51 393.42L201.16 393.42L201.16 344.07C201.16 338.62 205.57 334.21 211.03 334.21L226.64 334.21C232.09 334.21 236.51 338.62 236.51 344.07L236.51 344.07Z" />
	<path id="Layer" class="shp2" d="M177.3 393.41L236.51 393.41L236.51 511.71L177.3 511.71L177.3 393.41Z" />
	<path id="Layer" class="shp1" d="M177.3 393.41L200.98 393.41L200.98 511.71L177.3 511.71L177.3 393.41Z" />
	<path id="Layer" class="shp1" d="M177.82 167.62L177.82 215.96C177.82 230.43 166.89 242.35 152.81 243.89C151.79 244.01 150.75 244.07 149.7 244.07L129.25 244.07C113.72 244.07 101.13 231.48 101.13 215.96L101.13 167.62L177.82 167.62Z" />
	<path id="Layer" class="shp2" d="M177.82 167.62L177.82 215.96C177.82 230.43 166.89 242.35 152.81 243.89C138.74 242.36 127.79 230.43 127.79 215.96L127.79 167.62L177.82 167.62Z" />
	<path id="Layer" class="shp10" d="M212.93 130.47C212.93 156.98 198.88 180.23 177.82 193.14L101.13 193.14C80.05 180.23 66 156.98 66 130.47C66 89.89 98.89 57 139.47 57C146.2 57 152.7 57.91 158.89 59.6C190.04 68.11 212.93 96.62 212.93 130.47Z" />
	<g id="Layer">
		<path id="Layer" class="shp11" d="M212.93 130.47C212.93 156.98 198.88 180.23 177.82 193.14L139.96 193.14C118.89 180.23 104.84 156.98 104.84 130.47C104.84 96.61 127.74 68.11 158.89 59.6C190.04 68.11 212.93 96.62 212.93 130.47Z" />
		<path id="Layer" class="shp11" d="M38.91 138.36L16.89 138.36C12.54 138.36 9 134.83 9 130.47C9 126.11 12.54 122.58 16.89 122.58L38.91 122.58C43.27 122.58 46.8 126.11 46.8 130.47C46.8 134.83 43.27 138.36 38.91 138.36Z" />
		<path id="Layer" class="shp11" d="M226.57 88.09C223.84 88.09 221.18 86.67 219.72 84.14C217.54 80.36 218.84 75.54 222.61 73.36L241.68 62.35C245.45 60.17 250.28 61.46 252.46 65.23C254.64 69.01 253.35 73.84 249.57 76.02L230.5 87.03C229.26 87.75 227.9 88.09 226.57 88.09Z" />
		<path id="Layer" class="shp11" d="M33.32 199.65C30.59 199.65 27.94 198.24 26.48 195.71C24.3 191.93 25.59 187.1 29.37 184.92L48.44 173.91C52.21 171.73 57.04 173.03 59.22 176.8C61.4 180.58 60.11 185.41 56.33 187.59L37.27 198.59C36.02 199.31 34.66 199.65 33.32 199.65Z" />
		<path id="Layer" class="shp11" d="M189.74 51.28C188.4 51.28 187.05 50.94 185.8 50.22C182.03 48.04 180.73 43.21 182.91 39.44L193.92 20.37C196.1 16.59 200.93 15.3 204.71 17.48C208.48 19.66 209.77 24.49 207.59 28.27L196.59 47.33C195.13 49.86 192.47 51.28 189.74 51.28Z" />
		<path id="Layer" class="shp11" d="M139.47 37.8C135.11 37.8 131.58 34.27 131.58 29.91L131.58 7.89C131.58 3.54 135.11 0 139.47 0C143.83 0 147.36 3.54 147.36 7.89L147.36 29.91C147.36 34.27 143.83 37.8 139.47 37.8Z" />
		<path id="Layer" class="shp11" d="M89.2 51.28C86.47 51.28 83.82 49.86 82.36 47.33L71.35 28.27C69.17 24.49 70.46 19.66 74.23 17.48C78.01 15.3 82.84 16.59 85.02 20.37L96.03 39.44C98.21 43.21 96.91 48.04 93.14 50.22C91.89 50.94 90.54 51.28 89.2 51.28Z" />
		<path id="Layer" class="shp11" d="M52.38 88.09C51.04 88.09 49.68 87.75 48.44 87.03L29.37 76.02C25.59 73.84 24.3 69.01 26.48 65.23C28.66 61.46 33.49 60.16 37.27 62.35L56.33 73.36C60.11 75.54 61.4 80.36 59.22 84.14C57.76 86.67 55.11 88.09 52.38 88.09Z" />
		<path id="Layer" class="shp11" d="M262.05 138.36L240.03 138.36C235.67 138.36 232.14 134.83 232.14 130.47C232.14 126.11 235.67 122.58 240.03 122.58L262.05 122.58C266.41 122.58 269.94 126.11 269.94 130.47C269.94 134.83 266.41 138.36 262.05 138.36L262.05 138.36Z" />
		<path id="Layer" class="shp11" d="M245.62 199.65C244.28 199.65 242.92 199.31 241.68 198.59L222.61 187.59C218.84 185.41 217.54 180.58 219.72 176.8C221.9 173.03 226.73 171.73 230.5 173.91L249.57 184.92C253.35 187.1 254.64 191.93 252.46 195.71C251 198.24 248.34 199.65 245.62 199.65Z" />
	</g>
	<path id="Layer" class="shp12" d="M164.14 139.39L164.14 193.14L148.36 193.14L148.36 139.39C148.36 135.03 151.89 131.49 156.25 131.49C160.62 131.49 164.14 135.03 164.14 139.39Z" />
	<path id="Layer" class="shp12" d="M130.58 139.39L130.58 193.14L114.79 193.14L114.79 139.39C114.79 135.03 118.32 131.49 122.68 131.49C127.05 131.49 130.58 135.03 130.58 139.39Z" />
</svg>